<svg xmlns="http://www.w3.org/2000/svg" viewBox="0 0 700 500" role="img" aria-labelledby="title desc">
  <title id="title">Member portrait 2</title>
  <desc id="desc">Abstract member portrait with gradients.</desc>
  <defs>
    <linearGradient id="bg" x1="0" y1="0" x2="1" y2="1">
      <stop offset="0%" stop-color="#F8FAFC"/>
      <stop offset="100%" stop-color="#94A3B8"/>
    </linearGradient>
    <radialGradient id="halo" cx="65%" cy="28%" r="60%">
      <stop offset="0%" stop-color="#00FF94" stop-opacity="0.85"/>
      <stop offset="100%" stop-color="#00FF94" stop-opacity="0"/>
    </radialGradient>
  </defs>
  <rect width="700" height="500" rx="28" fill="url(#bg)"/>
  <circle cx="500" cy="150" r="110" fill="url(#halo)"/>
  <circle cx="500" cy="190" r="70" fill="#F8FAFC" opacity="0.96"/>
  <rect x="430" y="270" width="140" height="26" rx="13" fill="#0F172A" opacity="0.88"/>
  <rect x="402" y="312" width="196" height="20" rx="10" fill="#0F172A" opacity="0.32"/>
  <rect x="402" y="344" width="166" height="20" rx="10" fill="#0F172A" opacity="0.24"/>
  <path d="M88 116h164a20 20 0 0 1 20 20v168a20 20 0 0 1-20 20H88a20 20 0 0 1-20-20V136a20 20 0 0 1 20-20z" fill="#0F172A" opacity="0.94"/>
  <path d="M116 190l35 35 70-78" fill="none" stroke="#00FF94" stroke-width="12" stroke-linecap="round" stroke-linejoin="round"/>
  <rect x="88" y="344" width="204" height="24" rx="12" fill="#0F172A" opacity="0.28"/>
</svg>