<svg xmlns="http://www.w3.org/2000/svg" viewBox="0 0 800 600" role="img" aria-labelledby="title desc">
  <title id="title">Story illustration</title>
  <desc id="desc">Abstract security illustration with dark and light gradients.</desc>
  <defs>
    <linearGradient id="g1" x1="0" y1="0" x2="1" y2="1">
      <stop offset="0%" stop-color="#0F172A"/>
      <stop offset="100%" stop-color="#94A3B8"/>
    </linearGradient>
    <radialGradient id="g2" cx="35%" cy="30%" r="70%">
      <stop offset="0%" stop-color="#00FF94" stop-opacity="0.92"/>
      <stop offset="55%" stop-color="#00FF94" stop-opacity="0.28"/>
      <stop offset="100%" stop-color="#00FF94" stop-opacity="0"/>
    </radialGradient>
  </defs>
  <rect width="800" height="600" fill="#F8FAFC"/>
  <rect x="40" y="40" width="720" height="520" rx="36" fill="url(#g1)"/>
  <circle cx="220" cy="180" r="130" fill="url(#g2)"/>
  <path d="M220 120l90 35v55c0 62-38 109-90 141-52-32-90-79-90-141v-55l90-35z" fill="none" stroke="#F8FAFC" stroke-width="10" opacity="0.9"/>
  <path d="M220 160v170M145 240h150" stroke="#F8FAFC" stroke-width="8" stroke-linecap="round" opacity="0.75"/>
  <rect x="360" y="140" width="280" height="32" rx="16" fill="#F8FAFC" opacity="0.9"/>
  <rect x="360" y="200" width="220" height="18" rx="9" fill="#F8FAFC" opacity="0.72"/>
  <rect x="360" y="238" width="250" height="18" rx="9" fill="#F8FAFC" opacity="0.72"/>
  <rect x="360" y="276" width="190" height="18" rx="9" fill="#F8FAFC" opacity="0.72"/>
  <rect x="360" y="330" width="280" height="120" rx="26" fill="#F8FAFC" opacity="0.12" stroke="#F8FAFC" stroke-width="2"/>
  <path d="M388 394l42-38 32 28 54-56 44 40" fill="none" stroke="#00FF94" stroke-width="8" stroke-linecap="round" stroke-linejoin="round"/>
</svg>